<svg viewBox="12.585 166.183 190.498 49.439" width="190.498" height="49.439" xmlns="http://www.w3.org/2000/svg">
  <path id="path204" style="fill:#ffffff;fill-rule:evenodd" d="M -3460.4114,-802.8614 A 1221.3527,1221.3524 0 0 1 -2239.0588,418.491 1221.3527,1221.3524 0 1 1 -3460.4114,-802.8614 Z" transform="matrix(0.018801, 0, 0, 0.018801, 101.603104, 181.718307)"/>
  <path id="path206" style="fill:#ffffff;fill-rule:evenodd;stroke:#1b1918;stroke-width:0.21600001;stroke-linecap:butt;stroke-linejoin:miter;stroke-dasharray:none" d="m -1652.8606,1057.0105 h -482.0052 v -63.7949 c 22.8779,-6.6107 40.7415,-13.5521 53.9042,-20.8241 13.1627,-7.6026 22.8782,-17.8492 29.1459,-31.0712 6.5814,-13.2216 10.6557,-30.0792 12.5362,-50.2423 1.8802,-20.4937 2.8204,-46.2759 2.8204,-77.0165 V -20.8896 c 0,-30.4098 -0.9402,-55.8615 -2.5072,-76.3555 -1.2535,-20.8241 -5.3277,-37.3512 -11.9089,-50.5729 -6.2683,-12.8911 -15.9834,-23.1381 -29.1461,-31.4016 -13.1627,-7.9331 -31.3399,-15.2051 -54.8445,-21.8157 v -63.7949 h 535.2829 c 72.3949,0 133.8208,5.2886 184.2778,15.8661 50.4569,10.908 94.646,27.1046 132.567,48.9203 31.9666,18.18 58.919,40.9873 80.8566,68.4224 21.9378,27.4351 38.8615,59.4978 50.7704,95.8575 12.2225,36.3597 18.1769,78.9996 18.1769,127.2589 0,63.1338 -10.6551,117.6732 -31.653,162.627 -21.3109,45.2843 -49.8303,82.9664 -85.5576,113.0457 -35.727,29.7487 -83.677,58.1754 -143.536,84.619 v 9.5856 c 45.1293,20.8242 82.7368,48.2593 112.1965,82.9664 29.7728,34.3763 56.7249,78.3386 80.543,131.2254 l 57.6652,131.5559 c 25.6983,58.8368 51.3972,102.799 76.7823,132.2172 25.3851,29.4183 55.4715,47.2677 90.5718,53.8784 v 63.7949 h -353.5124 c -35.7273,-51.5648 -75.842,-128.5813 -120.3446,-230.3884 l -71.7681,-165.602 c -21.3109,-49.2508 -39.8012,-83.9577 -54.8444,-104.7818 -15.3564,-20.494 -31.3399,-34.7072 -47.323,-42.6402 -16.2967,-7.6025 -41.3686,-11.569 -74.9021,-11.569 h -53.2778 v 312.0324 c 0,48.2593 2.1941,82.3051 6.2683,101.4766 4.3875,19.5021 12.8492,35.0376 25.0719,46.6067 12.2224,11.5687 34.787,21.8157 67.6936,31.0708 z m -99.0338,-1206.4811 v 538.1235 h 90.8856 c 48.89,0 89.3182,-6.9412 121.2848,-20.4937 31.6531,-13.8826 57.0382,-33.3847 75.5286,-58.1754 18.8039,-24.7907 31.6534,-54.2092 38.5481,-87.5939 7.2082,-33.7153 10.6554,-70.4056 10.6554,-110.4013 0,-87.9244 -19.4307,-153.7024 -58.6052,-197.6646 -39.1745,-43.9623 -97.4667,-65.778 -174.5626,-65.778 -52.6507,0 -87.1242,0.6611 -103.7347,1.9834 z m 1244.1881,963.5321 c 0,22.477 0.627,43.3012 1.8805,62.8033 1.2535,19.5018 3.4475,35.3678 7.2082,47.5979 3.7607,12.2301 9.0885,22.477 15.9832,30.7406 7.2082,8.5941 16.9234,15.8661 29.1461,21.8157 12.2224,6.2805 27.2656,11.5691 44.8157,16.1966 v 63.7949 H -890.678 v -63.7949 c 22.8782,-6.6107 40.7415,-13.5521 53.9045,-20.8241 13.1627,-7.6026 22.8781,-17.8492 29.1458,-31.0712 6.5815,-13.2216 10.6557,-30.0792 12.5362,-50.2423 1.8803,-20.4937 2.8202,-46.2759 2.8202,-77.0165 V -21.8812 c 0,-30.7406 -0.9399,-56.5228 -2.5069,-76.3554 -1.2535,-20.1631 -5.328,-36.6903 -11.9089,-49.9119 -6.2683,-13.2216 -15.9835,-23.7991 -29.1462,-31.4016 -13.1626,-7.9331 -31.3398,-14.8746 -54.8447,-21.4852 v -63.7949 h 482.0054 v 63.7949 c -25.0716,7.272 -43.5622,14.8745 -55.4711,22.8072 -11.9092,8.2639 -20.998,17.8495 -26.9524,29.7491 -6.268,11.569 -10.6555,26.7738 -12.8495,45.2843 -2.5069,18.841 -3.7607,46.2759 -3.7607,82.3051 z m 389.2399,-83.2966 c 15.3564,76.6856 41.0551,133.8698 76.7824,171.8821 35.7273,37.6818 88.3783,56.5228 157.6391,56.5228 36.0406,0 68.3204,-6.2804 97.153,-19.1715 28.8326,-13.2217 52.024,-34.0458 69.2609,-62.4725 17.5504,-28.7572 26.3253,-64.7864 26.3253,-108.0876 0,-39.9957 -7.2079,-74.7025 -21.3111,-104.1211 -14.1027,-29.4182 -36.6673,-57.1838 -67.6936,-83.9576 -31.3399,-26.4436 -74.9021,-54.5398 -130.3733,-83.958 -47.95,-25.4517 -90.8856,-51.5647 -129.7469,-78.6691 -38.5477,-27.1046 -71.4546,-56.8533 -98.4067,-89.577 -27.2656,-32.3932 -48.5764,-68.0919 -63.6196,-106.7655 -14.7297,-39.0039 -22.2514,-82.3051 -22.2514,-130.8949 0,-79.3304 18.4907,-146.761 55.785,-202.2922 37.2943,-55.5313 91.512,-97.8407 162.0266,-126.5979 70.8276,-28.4266 152.6244,-42.9706 245.7037,-42.9706 54.5309,0 106.5549,2.9749 156.0716,9.2554 49.517,5.9496 106.242,16.8576 169.8613,32.3932 V 42.2442 H 439.0679 C 427.4722,-8.9901 412.429,-49.3163 394.5654,-79.3956 c -18.1772,-30.0795 -40.7415,-52.2258 -67.6939,-66.4393 -26.9521,-14.2132 -60.7992,-21.1546 -101.8542,-21.1546 -34.7871,0 -66.1269,6.2804 -93.7057,19.1715 -27.5794,13.2217 -49.2035,32.3932 -65.1867,57.8449 -15.6699,25.452 -23.8184,56.1923 -23.8184,92.5521 0,37.3512 6.8947,69.7444 20.6841,97.1796 13.7895,27.4351 36.9811,54.2089 69.2609,80.3219 32.5934,26.1128 79.6031,56.1923 141.3425,89.5771 75.5286,41.3178 134.7608,81.9745 177.6963,121.6397 43.2488,39.6652 75.2154,82.9661 95.5863,129.5728 20.3709,46.9369 30.7131,101.4766 30.7131,163.2881 0,79.3304 -17.2372,148.4138 -52.3375,206.9198 -34.7873,58.1754 -85.5576,103.1295 -152.3115,134.5308 -66.7536,31.4017 -143.8492,46.9372 -231.2872,46.9372 -62.6794,0 -127.5528,-3.636 -195.2464,-11.2385 -67.6942,-7.272 -131.0004,-18.1797 -190.5461,-32.3932 V 730.7649 Z M 1643.4544,-234.7506 V 45.8802 h -124.732 c -14.7297,-72.7195 -37.9211,-126.5979 -69.8879,-160.9745 -31.6531,-34.7071 -73.3349,-51.8952 -124.7321,-51.8952 -96.8397,0 -169.8613,48.9203 -219.3783,146.7609 -49.8303,97.8409 -74.5886,242.949 -74.5886,435.325 0,178.8237 22.8778,314.0156 68.0074,406.2371 45.4425,91.891 111.8826,137.8363 199.3206,137.8363 44.8161,0 81.1701,-7.933 109.3757,-23.7991 27.8926,-15.8661 50.4572,-39.3347 67.3806,-71.0668 16.9234,-31.7319 31.3396,-76.0247 43.5623,-133.539 h 125.6723 v 293.1913 c -67.0671,16.8577 -128.8066,29.0877 -184.2777,37.0208 -55.7847,7.6025 -113.7634,11.569 -173.6221,11.569 -127.2396,0 -231.2875,-24.1296 -311.8306,-72.7194 C 893.1807,951.5673 833.9485,878.1868 795.7142,780.6767 757.4797,682.8361 738.3626,558.8824 738.3626,409.1465 c 0,-140.15 22.5643,-261.7897 67.3803,-365.5803 45.1293,-103.4597 111.2562,-183.4511 198.694,-239.6435 87.7515,-56.1923 192.4262,-84.2884 314.0243,-84.2884 62.0529,0 117.8376,3.636 167.9811,10.5774 50.4569,7.272 102.7944,18.8411 157.0121,35.0377 z m 688.8478,1307.2966 c -179.8903,0 -314.9645,-55.5313 -405.2231,-166.5935 -90.2585,-111.0626 -135.3877,-277.3256 -135.3877,-498.7891 0,-145.1083 21.6243,-269.3925 65.5001,-372.1912 43.8758,-103.1293 108.1219,-181.4681 193.3662,-235.016 84.9308,-53.5479 186.1583,-80.3219 303.6824,-80.3219 183.024,0 320.6055,55.5312 412.431,166.263 91.8256,110.4015 137.5816,275.0116 137.5816,493.1699 0,121.9703 -13.4762,226.7524 -40.7418,314.3461 -27.2656,87.5939 -66.1269,159.3218 -116.2704,215.5138 -50.1435,56.1924 -110.3159,97.5104 -180.2035,123.9537 -70.2012,26.4436 -148.2373,39.6652 -234.7348,39.6652 z M 2083.4646,381.0504 c 0,195.0202 22.2511,340.1285 66.7536,435.325 44.189,95.1962 112.1964,142.7944 203.3949,142.7944 47.0098,0 87.1245,-13.2216 120.0314,-39.9957 33.22,-27.1046 59.8589,-64.4559 80.5433,-112.3846 20.3706,-48.2593 35.1003,-105.1126 43.8755,-170.8906 9.0884,-66.1085 13.4762,-138.1669 13.4762,-217.1665 0,-128.2507 -9.7155,-236.0077 -29.1461,-322.9404 -19.1171,-86.6021 -48.2633,-152.3803 -87.1245,-196.3423 -38.8613,-44.2927 -88.6916,-66.4392 -149.1775,-66.4392 -88.6913,0 -154.8182,44.6232 -197.7537,134.2003 -43.2488,89.2466 -64.8731,227.4134 -64.8731,413.8396 z m 1488.3247,-645.8806 v 63.7949 c -21.9376,6.6106 -39.488,13.5521 -52.3372,20.8241 -12.8494,7.6025 -22.5646,17.5187 -29.7728,30.7406 -6.895,12.8911 -11.5957,29.4183 -13.7897,49.5814 -2.1938,20.4936 -3.134,46.2758 -3.134,77.0164 v 964.5239 h 178.0101 c 35.727,0 63.9329,-5.6194 85.5572,-17.1884 21.3112,-11.8996 39.8016,-29.7487 55.4715,-53.8784 15.6696,-24.1296 29.1458,-55.8618 40.4283,-94.8657 11.2824,-39.0041 20.3706,-75.6943 26.9521,-110.0707 h 125.9858 l -20.3709,391.3626 h -875.0058 v -63.7949 c 22.8781,-6.6107 40.7415,-13.5521 53.9045,-21.4852 13.1627,-7.6025 22.8778,-18.18 29.1458,-31.4016 6.5815,-13.2217 10.6554,-30.0793 12.5359,-50.2424 1.8803,-20.4936 2.8205,-46.2762 2.8205,-77.0165 V -20.8896 c 0,-30.4098 -0.9402,-55.8615 -2.5069,-76.3555 -1.2535,-20.8241 -5.328,-37.3512 -11.9092,-50.5729 -6.268,-12.8911 -15.9832,-23.1381 -29.1462,-31.4016 -13.1623,-7.9331 -31.3395,-15.2051 -54.8444,-21.8157 v -63.7949 z m 1206.5806,912.2981 h -392.0605 l -30.086,91.891 c -8.7752,25.7823 -15.67,50.9035 -21.3112,75.0331 -5.3277,24.1296 -8.1485,49.9119 -8.1485,77.0165 0,63.1338 31.6531,97.1796 95.5863,101.8071 v 63.7949 h -392.0601 v -63.7949 c 22.5646,-2.6441 42.3085,-11.2382 59.5457,-25.4517 17.2366,-14.2135 32.593,-33.3848 46.6959,-57.8449 14.103,-24.7907 29.1459,-59.8283 45.1293,-105.7737 l 382.9717,-1075.917 h 245.0769 l 303.0554,1084.8416 c 13.4762,48.2593 24.7583,82.6356 33.8468,103.1292 9.0887,20.1632 20.9979,36.6903 35.7276,49.2509 14.7294,12.5609 35.4138,21.816 61.7391,27.7656 v 63.7949 h -507.077 v -63.7949 c 31.9663,-3.9665 55.4712,-13.2216 70.8276,-28.0961 15.3564,-14.8743 22.8782,-36.0292 22.8782,-63.1335 0,-19.8326 -2.1938,-42.3097 -6.268,-66.7698 -4.3878,-24.4602 -11.2822,-55.531 -21.3112,-92.8826 z M 4421.41,534.0917 h 330.321 l -146.67,-545.0649 z" transform="matrix(0.018801, 0, 0, 0.018801, 101.603104, 181.718307)"/>
  <path id="path208" style="fill:#3e0d0d;fill-rule:evenodd" d="m -4503.1669,-48.2941 45.2948,23.2826 26.3081,-51.1798 c 2.0636,-4.0139 3.382,-7.4597 3.9566,-10.336 0.5746,-2.8766 0.067,-4.7233 -1.5214,-5.5403 l -37.4281,-19.239 c -2.2249,-1.1438 -5.0144,1.5463 -8.367,8.0691 z m 110.5702,-26.8974 c -1.9071,-0.9802 -3.9926,-0.1491 -6.2549,2.4936 -2.2624,2.6433 -4.6843,6.4735 -7.2635,11.4911 l -25.5339,49.6749 40.7653,20.9545 28.2421,-54.943 c 2.3213,-4.5165 3.5904,-7.6697 3.8089,-9.4607 0.2175,-1.792 -0.3098,-3.0138 -1.5814,-3.6674 z m 14.6225,-122.8428 c 4.2914,2.2059 6.6317,6.7397 7.0229,13.6012 0.3911,6.8615 -2.5175,17.8945 -8.7268,33.0996 8.0564,-14.8896 15.3352,-24.9452 21.8361,-30.1666 6.5019,-5.2223 11.6595,-6.8525 15.4738,-4.892 l 44.8175,23.0377 c 9.5357,4.9017 13.1462,14.6869 10.83,29.355 -2.3162,14.6685 -11.5988,37.8077 -27.8476,69.4191 l -101.7521,197.9478 -172.8337,-88.8423 109.4887,-213.0009 c 11.0914,-21.576 21.3163,-36.7773 30.6757,-45.6044 9.3603,-8.8276 17.2179,-11.6076 23.5757,-8.3398 z m 116.1879,-195.2152 46.3005,48.4426 43.4367,-41.5156 c 5.7099,-5.457 7.6383,-9.1548 5.7867,-11.0926 l -40.7447,-42.6293 c -1.8524,-1.9378 -5.6338,-0.1778 -11.3425,5.2792 z m 195.6005,-74.6042 c 2.9633,3.1002 2.3145,9.1581 -1.9446,18.1734 -4.261,9.0159 -12.9161,19.7606 -25.9682,32.2348 l 89.2775,0.3217 -91.7663,87.7088 -85.6052,-3.8308 -11.6246,11.1101 42.7816,44.7611 -88.7071,84.7845 -134.2712,-140.4839 168.2374,-160.7987 c 20.8006,-19.8802 37.5667,-32.7537 50.3002,-38.6206 12.7324,-5.8663 21.7536,-6.0222 27.0626,-0.4674 z m 20.2413,-134.0847 109.4729,-55.4352 87.7915,173.3703 -109.4728,55.4349 z m 272.806,86.4207 -29.5766,-30.3103 128.6356,-29.6901 c 9.3461,-2.1569 13.7171,-4.5411 13.1139,-7.153 l -7.9571,-34.4755 c -0.6032,-2.6115 -2.6133,-3.7981 -6.033,-3.5592 -3.4186,0.239 -9.2511,1.3099 -17.4971,3.2131 l -61.8443,14.2741 c -8.7948,2.0299 -17.2287,3.7472 -25.3004,5.1517 -8.0716,1.4043 -15.4488,2.0529 -22.1323,1.9449 -6.6844,-0.108 -12.1337,-1.1424 -16.35,-3.1037 -4.2159,-1.961 -6.8669,-5.2923 -7.9514,-9.9932 l -14.8295,-64.2498 c -1.7283,-7.4869 3.3551,-14.9412 15.2481,-22.3628 11.8951,-7.422 31.8595,-14.3683 59.895,-20.8389 l 164.9171,-38.0639 28.7532,30.5005 -135.2324,31.2125 c -9.8955,2.2839 -14.5205,4.8189 -13.8782,7.6045 l 7.9572,34.4756 c 0.4422,1.9151 2.2561,2.872 5.4397,2.8709 3.1841,-10e-4 7.8003,-0.7002 13.8466,-2.0957 l 75.0376,-17.3191 c 19.2408,-4.4407 34.2769,-6.3983 45.1103,-5.8728 10.8335,0.5258 17.0731,4.358 18.7206,11.4968 l 14.4071,62.4211 c 2.412,10.4471 -2.6141,19.4015 -15.0784,26.8628 -12.4639,7.4617 -35.7363,15.1257 -69.8198,22.9921 z m 387.4919,-44.6457 c -35.2721,-4.3818 -59.6203,-9.7472 -73.0446,-16.0965 -13.4243,-6.3496 -19.4752,-14.8442 -18.1534,-25.4844 l 17.3149,-139.3829 c 0.9476,-7.6255 8.5323,-12.6252 22.756,-14.9998 14.2242,-2.3749 31.4129,-2.3102 51.569,0.1936 l 160.4041,19.9262 16.5342,38.518 -116.7344,-14.5015 c -7.278,-0.904 -11.0707,-0.1148 -11.3794,2.3681 l -14.11,113.5811 c -0.3079,2.4829 3.1762,4.1763 10.455,5.0802 l 116.7335,14.5015 -26.2956,33.1971 z m 388.1996,-63.9218 c -6.6889,-3.0099 -10.546,-3.3741 -11.5727,-1.0925 l -48.6176,108.0397 c -0.5862,1.3039 -0.3651,2.5302 0.665,3.6794 1.0292,1.1491 3.8591,2.7654 8.4895,4.8489 l 42.4451,19.1004 c 4.6307,2.0838 7.7165,3.1295 9.2594,3.138 1.5429,0.009 2.6078,-0.639 3.1949,-1.9429 l 48.6176,-108.04 c 1.0264,-2.2813 -1.8043,-4.9266 -8.4923,-7.9361 z m 113.0179,196.3539 c -1.5395,3.422 -4.2744,6.0613 -8.2032,7.9186 -3.9288,1.8572 -9.4938,2.5373 -16.6947,2.0406 -7.2,-0.4972 -16.2567,-2.368 -27.1698,-5.6131 -10.9131,-3.2451 -24.0871,-8.3407 -39.5214,-15.2861 l -129.6505,-58.3424 c -15.4352,-6.9455 -27.9853,-13.426 -37.6517,-19.4417 -9.6665,-6.0154 -17.0731,-11.5526 -22.2208,-16.6122 -5.1469,-5.0598 -8.3285,-9.6758 -9.5448,-13.8478 -1.2153,-4.1726 -1.0534,-7.9696 0.4869,-11.3916 l 58.0774,-129.0614 c 3.153,-7.0073 11.7096,-9.8683 25.6691,-8.583 13.9612,1.2852 34.0603,7.8315 60.2995,19.639 l 138.9115,62.5098 c 26.2383,11.8072 44.4685,22.5088 54.688,32.105 10.2214,9.5961 13.7545,17.8976 10.6015,24.9049 z m 160.0843,-75.2428 91.1548,87.1234 -109.2696,114.3252 89.3191,85.369 -40.2962,11.541 -165.1793,-157.8745 z m 147.5898,443.0151 -26.4923,1.0834 -55.8176,-110.228 223.4526,11.1112 59.2585,117.0224 -123.2864,186.6952 -55.8184,-110.2281 16.5524,-20.7124 z m 33.6164,-1.8462 25.6155,50.5843 48.8404,-56.035 z" transform="matrix(0.018801, 0, 0, 0.018801, 101.603104, 181.718307)"/>
  <path id="path210" style="fill:#7a111e;fill-rule:evenodd" d="m -3460.4056,-507.0241 a 925.5248,925.5148 0 0 1 925.5248,925.5148 925.5248,925.5148 0 1 1 -925.5248,-925.5148 z" transform="matrix(0.018801, 0, 0, 0.018801, 101.603104, 181.718307)"/>
  <path id="path212" style="fill:#3e0d0d;fill-rule:evenodd" d="m -4136.3118,1201.9258 -42.7199,54.1465 44.8756,35.4056 c 3.7392,2.9503 6.304,4.6137 7.6921,4.9901 1.3884,0.3764 2.482,0.057 3.282,-0.9558 l 38.3723,-48.6366 c 1.3994,-1.7736 -0.6015,-4.7908 -6.0027,-9.0525 z m 106.9174,45.2072 c 17.8676,14.0964 30.0682,26.189 36.6038,36.2769 6.5344,10.088 7.8038,17.6655 3.8072,22.7319 l -52.0138,65.9256 c -2.0987,2.6598 -4.9575,4.36 -8.5756,5.1015 -3.6184,0.7413 -8.5711,-0.032 -14.8555,-2.3187 -6.2856,-2.2876 -13.9584,-6.2348 -23.0177,-11.8412 -9.0595,-5.6063 -19.8223,-13.3273 -32.2871,-23.1619 l -77.2861,-60.9763 -28.9301,36.6676 -89.75,-70.8103 108.6741,-137.7409 z m 165.7695,90.7974 106.6337,43.3675 -66.0982,162.5227 -106.6326,-43.3672 z m 349.7482,226.1137 107.6576,8.2069 -22.2735,31.0668 -242.2301,-18.466 139.8852,-132.5302 -119.5319,-9.1122 22.2727,-31.0669 248.5627,18.9488 z m 399.7344,-51.8043 104.0598,-28.7966 -10.4153,36.7798 -234.1329,64.7927 86.6375,-172.1214 -115.537,31.9728 10.4153,-36.7801 240.2538,-66.4863 z m 335.789,-157.5907 5.3881,23.4918 -90.9969,71.7945 -27.0256,-202.1592 96.6062,-76.22 190.3215,73.3227 -90.9969,71.7945 -21.593,-10.7065 z m -7.2655,-29.7162 41.7583,-32.9465 -59.0901,-32.5995 z" transform="matrix(0.018801, 0, 0, 0.018801, 101.603104, 181.718307)"/>
  <g id="Layer1000-4" transform="matrix(0.018801, 0, 0, 0.018801, 101.603104, 181.718307)">
    <path id="path214" style="fill:#000200;fill-rule:evenodd" d="m -3211.6065,364.8217 c 71.9481,25.2896 139.4374,64.4063 187.2782,124.96 45.1319,57.1252 64.8264,123.7569 64.8264,196.2969 0,57.7857 -7.816,116.686 -29.7031,170.4907 -19.302,47.4491 -48.9688,87.6447 -89.4419,119.0619 -42.1112,32.6891 -90.2284,54.6018 -141.6166,68.2055 -30.1819,7.99 -61.4256,12.8906 -92.4579,16.0855 -37.9678,3.9087 -76.3163,5.3045 -114.4726,5.3045 h -541.4347 v -65.0849 l 0.2509,-0.077 c 9.8671,-3.0121 19.6818,-6.3561 29.2343,-10.2606 7.6022,-3.1073 15.1523,-6.6075 22.2446,-10.747 12.4716,-7.6104 21.7519,-17.8971 27.7421,-31.2477 7.2811,-15.4528 10.4782,-33.7484 11.9585,-50.6528 1.0191,-11.6408 1.6251,-23.3354 2.0279,-35.0127 0.4915,-14.2538 0.6687,-28.5242 0.6687,-42.7862 V -24.4097 c 0,-25.7278 -0.7384,-51.4633 -2.3973,-77.1386 -1.1103,-17.1828 -4.0362,-35.2588 -11.3587,-50.9806 -6.1795,-13.2678 -15.5746,-23.5097 -27.7475,-31.5839 -7.0769,-4.5062 -14.7421,-8.2451 -22.4674,-11.4965 -9.7273,-4.0938 -19.79,-7.5038 -29.9026,-10.5088 l -0.2535,-0.0752 v -65.0871 h 575.6083 c 29.8202,0 59.7166,0.688 89.4756,2.6626 23.7965,1.5792 47.7507,3.9637 71.2601,8.0314 50.2997,8.7035 99.4196,24.5849 143.4101,50.8178 37.3408,22.2676 65.4446,53.68 85.2676,92.336 22.5102,43.8957 30.9152,93.1431 30.9152,142.1258 0,162.3189 -96.766,265.9405 -238.9147,331.9211 z m -389.9976,-516.17 v 465.2938 h 116.5549 c 45.4091,0 97.5524,-5.466 137.7179,-28.3462 33.5874,-19.1327 58.4739,-46.1024 75.6995,-80.6862 9.644,-19.3623 15.5741,-40.8146 19.3532,-62.0467 4.7957,-26.9438 6.3896,-54.7608 6.3896,-82.0975 0,-42.8352 -5.6599,-90.8734 -27.8291,-128.4225 -18.7798,-31.8082 -45.5644,-54.3677 -79.8642,-67.9938 -40.0144,-15.8967 -86.3345,-20.3511 -129.0688,-20.3511 -39.6907,0 -79.3819,1.582 -118.953,4.6502 z m 0,1098.3065 c 39.566,2.2912 79.3264,2.9866 118.953,2.9866 45.5026,0 95.2354,-4.9862 137.454,-23.0202 37.656,-16.0849 64.8456,-43.8741 83.7607,-80.0062 11.0168,-21.0452 17.8849,-44.4569 22.2672,-67.7287 5.4998,-29.2062 7.369,-59.4187 7.369,-89.1026 0,-21.8347 -1.0409,-43.7731 -3.8055,-65.4417 -2.3874,-18.7135 -6.0863,-37.3663 -11.7658,-55.3717 -9.6004,-30.4359 -24.5251,-58.6197 -47.5722,-81.0227 -21.5651,-20.9622 -46.8019,-35.695 -75.4041,-45.0113 -15.9151,-5.184 -32.5726,-8.4394 -49.159,-10.5478 -20.0029,-2.5424 -40.2919,-3.4642 -60.4462,-3.4642 h -121.6511 z"/>
  </g>
  <path id="path217" style="fill:#ffffff;fill-rule:evenodd" d="m -3211.9608,365.0729 c 81.8365,28.7268 144.4878,70.4809 187.3545,124.9285 43.1665,54.4473 64.7501,119.9177 64.7501,196.0772 0,65.1365 -9.8924,121.9221 -29.6771,170.3571 -19.485,48.1009 -49.4617,87.8508 -89.3307,118.9157 -40.1689,31.0652 -87.2325,53.7795 -141.4902,68.1429 -54.2582,14.3634 -123.2048,21.378 -206.8398,21.378 h -541.0803 v -64.4683 c 21.8832,-6.6807 38.9695,-13.6953 51.5599,-21.0441 12.5901,-7.6828 21.8832,-18.0377 27.8782,-31.3991 6.2954,-13.3614 10.1922,-30.3971 11.9908,-50.7731 1.7989,-20.7102 2.698,-46.7645 2.698,-77.8297 V -24.4097 c 0,-30.731 -0.8991,-56.4517 -2.3981,-77.1616 -1.199,-21.0441 -5.0961,-37.7459 -11.391,-51.1073 -5.9956,-13.0271 -15.2881,-23.3821 -27.8785,-31.733 -12.5903,-8.0169 -29.9766,-15.3654 -52.4593,-22.0461 v -64.4684 h 575.2539 c 65.649,0 119.3074,3.6743 160.6754,10.6889 55.1571,9.6871 102.8202,26.7228 143.289,50.773 36.2716,21.7123 64.7496,52.4433 85.1338,92.1932 20.3839,39.75 30.8761,87.1827 30.8761,141.9642 0,147.3086 -79.7383,257.8736 -238.9147,331.6949 z m -273.0884,-50.7731 c 58.4547,0 104.319,-9.3529 137.8934,-28.3926 33.2742,-19.0401 58.4546,-45.7625 75.8412,-80.8362 17.3863,-34.7394 25.78,-82.8402 25.78,-144.3021 0,-54.1134 -9.2931,-96.8698 -27.8785,-128.6028 -18.8855,-31.7333 -45.5647,-54.4476 -80.0382,-68.1429 -34.4733,-13.6953 -77.6398,-20.376 -129.1998,-20.376 -40.7681,0 -80.6374,1.6702 -119.3074,4.6766 v 465.976 z m -116.9093,632.9929 c 34.4733,2.0041 74.3423,3.0064 119.3074,3.0064 55.757,0 101.6212,-7.6828 137.5932,-23.0485 35.9725,-15.3655 63.8509,-42.088 83.9353,-80.1678 19.7844,-38.0797 29.6767,-90.523 29.6767,-156.9957 0,-47.0985 -5.0961,-87.1826 -15.5877,-120.92 -10.7918,-33.7374 -26.3795,-60.7941 -47.6632,-81.1701 -20.9837,-20.7099 -46.1641,-35.4073 -75.5413,-45.0944 -29.0775,-9.3529 -65.6492,-14.0292 -109.7149,-14.0292 h -122.0055 z" transform="matrix(0.018801, 0, 0, 0.018801, 101.603104, 181.718307)"/>
  <path id="path219" style="fill:#ffffff;fill-rule:evenodd;stroke:#1b1918;stroke-width:0.21600001;stroke-linecap:butt;stroke-linejoin:miter;stroke-dasharray:none" d="m 2066.0281,1675.1733 c 0,18.6057 1.0885,31.9787 3.2658,39.8279 1.959,7.704 5.4419,13.9544 10.4496,18.6057 4.7892,4.7968 11.9733,8.5762 21.1164,11.774 9.1435,3.0524 23.2937,5.8142 42.2337,8.14 v 28.0539 h -343.0933 v -28.0539 c 15.8921,-2.9072 28.3011,-5.9596 37.4442,-9.1576 9.1435,-3.3432 15.8919,-7.8492 20.2459,-13.6636 4.572,-5.8141 7.4019,-13.2273 8.7081,-22.0941 1.3059,-9.0122 1.9593,-20.3502 1.9593,-33.8683 v -367.1722 c 0,-13.3728 -0.6534,-24.5654 -1.7419,-33.5775 -0.8705,-9.1574 -3.7007,-16.4254 -8.2727,-22.2395 -4.3534,-5.669 -11.1024,-10.175 -20.2456,-13.809 -9.1434,-3.4886 -21.77,-6.6864 -38.0973,-9.5936 v -28.0539 h 370.5233 c 107.7608,0 188.3092,12.7913 241.8633,38.5197 53.5539,25.7281 80.3311,65.2652 80.3311,118.6115 0,37.7926 -12.6267,70.4982 -37.6623,98.4067 -25.0353,27.7631 -61.391,48.8398 -109.0669,63.2302 -47.6762,14.2452 -107.108,21.513 -178.513,21.513 -41.3629,0 -75.1062,-0.5814 -101.4477,-1.7442 z m 0,-184.4581 h 54.86 c 42.4514,0 76.1947,-4.07 101.4475,-12.0648 25.0355,-8.14 43.5401,-21.0767 55.7311,-38.6649 12.1912,-17.5881 18.2866,-41.2815 18.2866,-71.0795 0,-29.5076 -6.0954,-53.0555 -18.2866,-70.4983 -12.191,-17.4429 -29.8247,-29.7983 -53.3361,-37.2115 -23.2937,-7.4131 -53.3362,-11.0472 -89.9096,-11.0472 -29.607,0 -52.6833,0.2909 -68.7929,0.8723 z m 801.7846,184.0221 c 0,9.8844 0.4351,19.0417 1.3062,27.6179 0.8708,8.576 2.3945,15.5532 5.0071,20.9314 2.6122,5.3781 6.3134,9.8844 11.1025,13.5181 5.0071,3.7794 11.7556,6.9772 20.2459,9.5936 8.4903,2.7618 18.94,5.0876 31.1312,7.1226 v 28.0539 h -334.821 v -28.0539 c 15.8922,-2.9072 28.3011,-5.9596 37.4446,-9.1576 9.1431,-3.3432 15.8916,-7.8492 20.2459,-13.6636 4.5717,-5.8141 7.4018,-13.2273 8.708,-22.0941 1.3059,-9.0122 1.9593,-20.3502 1.9593,-33.8683 v -367.6082 c 0,-13.5181 -0.6534,-24.8562 -1.7419,-33.5775 -0.8708,-8.8668 -3.7009,-16.1345 -8.2726,-21.949 -4.3538,-5.8141 -11.1025,-10.4657 -20.2459,-13.8089 -9.1434,-3.4886 -21.7701,-6.541 -38.0974,-9.4482 v -28.0539 h 334.821 v 28.0539 c -17.4161,3.1978 -30.2604,6.5412 -38.533,10.0296 -8.2727,3.634 -14.5854,7.8494 -18.7217,13.0821 -4.354,5.0877 -7.4019,11.774 -8.926,19.914 -1.7414,8.2854 -2.6122,20.3502 -2.6122,36.1939 z m 415.3692,56.1078 h 182.2141 c 23.5117,0 43.1042,-3.1977 58.7784,-9.5935 15.6744,-6.3959 29.3896,-16.4254 40.7097,-30.2344 11.5382,-13.6635 23.5117,-37.6475 35.9204,-71.6609 h 86.644 v 162.2185 H 3048.285 v -28.0539 l 408.1853,-502.4996 h -172.8528 c -27.8654,0 -50.0706,3.3431 -66.1807,10.1749 -16.1096,6.8318 -30.0422,17.7336 -41.5803,32.7053 -11.3202,15.1172 -21.3344,35.1765 -29.8247,60.1778 h -87.5149 v -153.7877 h 632.8502 v 28.0539 z m 739.7407,0 h 182.2142 c 23.5114,0 43.1039,-3.1977 58.7783,-9.5935 15.6745,-6.3959 29.3896,-16.4254 40.7095,-30.2344 11.5381,-13.6635 23.512,-37.6475 35.9203,-71.6609 h 86.6444 v 162.2185 h -639.1639 v -28.0539 l 408.1853,-502.4996 H 4023.358 c -27.8654,0 -50.0706,3.3431 -66.1805,10.1749 -16.1095,6.8318 -30.0421,17.7336 -41.5802,32.7053 -11.3205,15.1172 -21.3344,35.1765 -29.8248,60.1778 h -87.5151 v -153.7877 h 632.8502 v 28.0539 z m 968.542,-129.3678 h -272.3411 l -20.8993,40.4093 c -6.0953,11.3377 -10.8847,22.3849 -14.8031,32.9961 -3.7012,10.6109 -5.6605,21.949 -5.6605,33.8681 0,27.7633 21.9878,42.7351 66.3979,44.7701 v 28.0539 h -272.3408 v -28.0539 c 15.6744,-1.1628 29.3893,-4.9422 41.3628,-11.1926 11.9733,-6.2504 22.6404,-14.6809 32.4372,-25.4376 9.7962,-10.9017 20.2456,-26.3094 31.3483,-46.5142 l 266.0281,-473.1373 h 170.2403 l 210.515,477.0621 c 9.3606,21.2222 17.1981,36.3393 23.5114,45.3512 6.3127,8.8668 14.5854,16.1348 24.8173,21.6584 10.2317,5.5236 24.5999,9.5936 42.8871,12.21 v 28.0539 h -352.2371 v -28.0539 c 22.2052,-1.7442 38.5331,-5.8144 49.2001,-12.3554 10.6674,-6.5409 15.8922,-15.844 15.8922,-27.7631 0,-8.7216 -1.5242,-18.6057 -4.354,-29.3624 -3.0478,-10.7563 -7.837,-24.4199 -14.8037,-40.8452 z m -247.9589,-49.8575 h 229.4544 l -101.8832,-239.6939 z" transform="matrix(0.018801, 0, 0, 0.018801, 101.603104, 181.718307)"/>
</svg>